<svg id="Layer_1" data-name="Layer 1" xmlns="http://www.w3.org/2000/svg" viewBox="0 0 800 800"><defs><style>.cls-1{fill:#bfbfbf;fill-rule:evenodd;}</style></defs><path class="cls-1" d="M739.91,60C700.48,17.45,646.14,0,586.05,0H214C153.86,0,99.52,17.45,60.09,60,20.27,103,0,166.8,0,248.65v302.7C0,633.21,20.27,697,60.09,740c39.43,42.57,93.77,60,153.86,60h372.1c60.09,0,114.43-17.45,153.86-60C779.74,697,800,633.21,800,551.35V248.65C800,166.8,779.74,103,739.91,60ZM669,242.69,462.57,428.05c-36.86,33.09-88.28,33.09-125.14,0L131,242.69c-12.19-10.94-14.45-31.32-5-45.49s27-16.79,39.15-5.83l206.4,185.35c16.75,15,40.13,15,56.88,0l206.4-185.35c12.2-11,29.72-8.34,39.14,5.83S681.16,231.75,669,242.69Z"/></svg>