<svg id="Layer_1" data-name="Layer 1" xmlns="http://www.w3.org/2000/svg" viewBox="0 0 800 800"><defs><style>.cls-1{fill:#bfbfbf;fill-rule:evenodd;}</style></defs><g id="Page-1"><g id="Dribbble-Light-Preview"><g id="icons"><path id="github-_142_" data-name="github-[#142]" class="cls-1" d="M400,0C620.92,0,800,183.59,800,410.12,800,591.29,685.52,745,526.68,799.24c-20.28,4-27.48-8.75-27.48-19.69,0-13.51.48-57.67.48-112.56,0-38.22-12.8-63.18-27.16-75.92C561.6,580.92,655.2,546.23,655.2,388.71c0-44.78-15.52-81.35-41.2-110.08,4.16-10.35,17.88-52.07-3.92-108.55,0,0-33.52-11-109.88,42a370.12,370.12,0,0,0-200.32,0c-76.44-53-110-42-110-42-21.72,56.48-8,98.2-3.88,108.55-25.56,28.73-41.2,65.3-41.2,110.08,0,157.13,93.4,192.33,182.24,202.7-11.44,10.23-21.8,28.32-25.4,54.82-22.8,10.49-80.72,28.61-116.4-34.06,0,0-21.16-39.42-61.32-42.29,0,0-39-.52-2.72,24.92,0,0,26.2,12.6,44.4,60,0,0,23.48,73.21,134.76,48.4.2,34.28.56,66.6.56,76.35,0,10.84-7.36,23.54-27.32,19.73C114.6,745.08,0,591.33,0,410.12,0,183.59,179.12,0,400,0"/></g></g></g></svg>