<?xml version="1.0" encoding="utf-8"?>
<!-- Generator: Adobe Illustrator 26.0.1, SVG Export Plug-In . SVG Version: 6.00 Build 0)  -->
<svg version="1.1" id="Layer_1" xmlns="http://www.w3.org/2000/svg" xmlns:xlink="http://www.w3.org/1999/xlink" x="0px" y="0px"
	 viewBox="0 0 800 800" style="enable-background:new 0 0 800 800;" xml:space="preserve">
<style type="text/css">
	.st0{filter:url(#Adobe_OpacityMaskFilter);}
	.st1{fill:#FFFFFF;}
	.st2{mask:url(#mask-2_00000057850245024222852190000001382698843011671466_);fill:#0065A9;}
	.st3{filter:url(#Adobe_OpacityMaskFilter_00000103259527790043655330000017731993211323488148_);}
	.st4{mask:url(#mask-2_00000069362912347456466560000011461182700896743043_);fill:#007ACC;}
	.st5{filter:url(#Adobe_OpacityMaskFilter_00000119811903380279231660000002891101031144044165_);}
	.st6{mask:url(#mask-2_00000142898927637350987340000011168991110115863971_);fill:#1F9CF0;}
</style>
<defs>
	<filter id="Adobe_OpacityMaskFilter" filterUnits="userSpaceOnUse" x="0" y="3.1" width="797.4" height="602.3">
		<feColorMatrix  type="matrix" values="1 0 0 0 0  0 1 0 0 0  0 0 1 0 0  0 0 0 1 0"/>
	</filter>
</defs>
<mask maskUnits="userSpaceOnUse" x="0" y="3.1" width="797.4" height="602.3" id="mask-2_00000057850245024222852190000001382698843011671466_">
	<g class="st0">
		<path id="path-1_00000139973205543023718860000014198272233371123903_" class="st1" d="M565.1,792.5c12.6,4.9,26.9,4.6,39.5-1.5
			l164.1-78.9c17.2-8.3,28.2-25.7,28.2-44.9V131.9c0-19.1-11-36.6-28.2-44.9L604.6,8c-16.6-8-36.1-6-50.7,4.6
			c-2.1,1.5-4.1,3.2-5.9,5.1L233.9,304.2L97.1,200.4c-12.7-9.7-30.5-8.9-42.4,1.9l-43.9,39.9c-14.5,13.2-14.5,35.9,0,49.1
			l118.6,108.2L10.8,507.8c-14.4,13.2-14.4,35.9,0,49.1l43.9,39.9c11.8,10.8,29.6,11.6,42.4,1.9l136.8-103.9L548,781.4
			C553,786.3,558.8,790.1,565.1,792.5z M597.8,218.6L359.5,399.5l238.3,180.9V218.6z"/>
	</g>
</mask>
<path class="st2" d="M769.2,87.1L605,8c-19-9.2-41.7-5.3-56.6,9.6L10.8,507.8c-14.5,13.2-14.4,35.9,0,49.1l43.9,39.9
	c11.8,10.8,29.7,11.6,42.4,1.9l647.3-491c21.7-16.5,52.9-1,52.9,26.3V132C797.4,112.8,786.4,95.4,769.2,87.1z"/>
<defs>
	
		<filter id="Adobe_OpacityMaskFilter_00000074406460645554538910000011294922618458697890_" filterUnits="userSpaceOnUse" x="0" y="193.6" width="797.4" height="602.3">
		<feColorMatrix  type="matrix" values="1 0 0 0 0  0 1 0 0 0  0 0 1 0 0  0 0 0 1 0"/>
	</filter>
</defs>
<mask maskUnits="userSpaceOnUse" x="0" y="193.6" width="797.4" height="602.3" id="mask-2_00000069362912347456466560000011461182700896743043_">
	<g style="filter:url(#Adobe_OpacityMaskFilter_00000074406460645554538910000011294922618458697890_);">
		<path id="path-1_00000057862175437282673820000003563022271061427352_" class="st1" d="M565.1,792.5c12.6,4.9,26.9,4.6,39.5-1.5
			l164.1-78.9c17.2-8.3,28.2-25.7,28.2-44.9V131.9c0-19.1-11-36.6-28.2-44.9L604.6,8c-16.6-8-36.1-6-50.7,4.6
			c-2.1,1.5-4.1,3.2-5.9,5.1L233.9,304.2L97.1,200.4c-12.7-9.7-30.5-8.9-42.4,1.9l-43.9,39.9c-14.5,13.2-14.5,35.9,0,49.1
			l118.6,108.2L10.8,507.8c-14.4,13.2-14.4,35.9,0,49.1l43.9,39.9c11.8,10.8,29.6,11.6,42.4,1.9l136.8-103.9L548,781.4
			C553,786.3,558.8,790.1,565.1,792.5z M597.8,218.6L359.5,399.5l238.3,180.9V218.6z"/>
	</g>
</mask>
<path class="st4" d="M769.2,711.9L605,791c-19,9.1-41.7,5.3-56.6-9.6L10.8,291.3c-14.5-13.2-14.4-35.9,0-49.1l43.9-39.9
	c11.8-10.8,29.7-11.6,42.4-1.9l647.3,491c21.7,16.5,52.9,1,52.9-26.3v1.9C797.4,686.2,786.4,703.6,769.2,711.9z"/>
<defs>
	
		<filter id="Adobe_OpacityMaskFilter_00000115475729996021523720000006232706901829101235_" filterUnits="userSpaceOnUse" x="547.8" y="3.2" width="249" height="792.8">
		<feColorMatrix  type="matrix" values="1 0 0 0 0  0 1 0 0 0  0 0 1 0 0  0 0 0 1 0"/>
	</filter>
</defs>
<mask maskUnits="userSpaceOnUse" x="547.8" y="3.2" width="249" height="792.8" id="mask-2_00000142898927637350987340000011168991110115863971_">
	<g style="filter:url(#Adobe_OpacityMaskFilter_00000115475729996021523720000006232706901829101235_);">
		<path id="path-1_00000147939863853708006370000002684432245788771235_" class="st1" d="M565.1,792.5c12.6,4.9,26.9,4.6,39.5-1.5
			l164.1-78.9c17.2-8.3,28.2-25.7,28.2-44.9V131.9c0-19.1-11-36.6-28.2-44.9L604.6,8c-16.6-8-36.1-6-50.7,4.6
			c-2.1,1.5-4.1,3.2-5.9,5.1L233.9,304.2L97.1,200.4c-12.7-9.7-30.5-8.9-42.4,1.9l-43.9,39.9c-14.5,13.2-14.5,35.9,0,49.1
			l118.6,108.2L10.8,507.8c-14.4,13.2-14.4,35.9,0,49.1l43.9,39.9c11.8,10.8,29.6,11.6,42.4,1.9l136.8-103.9L548,781.4
			C553,786.3,558.8,790.1,565.1,792.5z M597.8,218.6L359.5,399.5l238.3,180.9V218.6z"/>
	</g>
</mask>
<path class="st6" d="M604.5,791c-19,9.1-41.7,5.3-56.6-9.6c18.4,18.4,49.8,5.4,49.8-20.6V38.4c0-26-31.4-39-49.8-20.6
	c14.9-14.9,37.6-18.8,56.6-9.6L768.6,87c17.3,8.3,28.2,25.7,28.2,44.9v535.3c0,19.1-11,36.6-28.2,44.9L604.5,791z"/>
</svg>
